<svg width="24" height="24" viewBox="0 0 24 24" fill="none" xmlns="http://www.w3.org/2000/svg">
<path d="M9.24464 1.48125C8.28839 1.93125 7.44464 3.09375 7.53839 3.88125C7.63214 4.6875 8.25089 4.59375 8.68214 3.69375C9.09464 2.83125 9.99464 2.25 10.9509 2.25C11.5321 2.25 11.7946 2.38125 12.3571 2.9625C12.7321 3.3375 13.1821 3.9375 13.3509 4.275C13.8009 5.1 14.1571 5.025 14.6821 3.975C15.4696 2.4 16.8759 1.8375 18.1321 2.625C19.4071 3.39375 19.7446 5.1375 18.8821 6.58125C18.3946 7.44375 17.2884 8.55 15.1884 10.35L13.9696 11.4L12.8446 10.4625C12.2259 9.95625 11.1196 8.94375 10.3696 8.2125C9.00089 6.9 8.41964 6.65625 8.28839 7.3875C8.23214 7.59375 8.53214 8.04375 9.03839 8.56875C10.3509 9.9375 13.6696 12.75 13.9696 12.75C14.3259 12.75 18.4884 9.1125 19.2759 8.1C20.5509 6.4875 20.8696 4.55625 20.1009 3.05625C19.0134 0.956249 16.2946 0.45 14.6259 2.04375L13.8759 2.75625L13.3696 2.19375C12.3384 1.10625 10.7259 0.825 9.24464 1.48125Z" fill="white"/>
<path d="M7.38845 5.53125C7.31345 5.7 7.38845 5.9625 7.5572 6.13125C7.95095 6.525 8.47595 6.3 8.40095 5.775C8.32595 5.25 7.5572 5.0625 7.38845 5.53125Z" fill="white"/>
<path d="M0.13125 11.5688C0.05625 11.625 0 13.7813 0 16.35V21H1.96875C3.69375 21 3.99375 20.9438 4.3125 20.625C4.51875 20.4188 4.8375 20.25 5.025 20.25C5.2125 20.25 6.1125 20.6813 7.03125 21.225C9.58125 22.6875 10.3313 22.9313 12 22.8375C13.2938 22.7438 13.7813 22.575 18.375 20.5688C21.1125 19.35 23.4938 18.1875 23.6813 17.9813C24.075 17.4938 24.1125 16.1625 23.7188 15.6188C23.55 15.375 23.1188 15.1125 22.725 15C22.1063 14.8125 21.7875 14.8688 19.65 15.6188C17.25 16.425 17.25 16.425 17.25 15.9938C17.25 15.7688 17.0063 15.3 16.7063 14.9625C16.1625 14.3438 16.1438 14.3438 14.025 14.25C11.9438 14.1563 11.8875 14.1375 10.4062 13.3125C8.925 12.4875 8.8875 12.4688 6.84375 12.3938C5.00625 12.3375 4.725 12.2813 4.25625 11.8875C3.76875 11.475 3.54375 11.4375 1.9875 11.4375C1.03125 11.4375 0.1875 11.4938 0.13125 11.5688ZM3.5625 12.9188C3.76875 13.3125 3.825 19.0688 3.6375 19.575C3.54375 19.8 3.24375 19.875 2.23125 19.875H0.9375V16.2188V12.5625H2.15625C3.15 12.5625 3.39375 12.6188 3.5625 12.9188ZM10.0125 14.4375L11.7938 15.375H13.65C15.2625 15.375 15.5438 15.4313 15.8438 15.75C16.125 16.0688 16.1438 16.2 15.975 16.5938C15.75 17.0625 15.75 17.0625 13.05 17.0625C10.8938 17.0625 10.3125 17.1188 10.125 17.3438C9.99375 17.4938 9.9375 17.7563 10.0125 17.9063C10.1063 18.1688 10.5375 18.1875 13.1625 18.15L16.2188 18.075L19.2188 17.025C22.4625 15.9 22.95 15.8625 22.8375 16.8375C22.7812 17.3063 22.4062 17.4938 17.9062 19.4813C11.5125 22.2938 11.3438 22.3125 8.0625 20.4375C6.975 19.8188 5.775 19.2563 5.4 19.2L4.6875 19.0688V16.2938V13.5H6.46875C8.23125 13.5 8.23125 13.5 10.0125 14.4375Z" fill="white"/>
<path d="M2.00625 13.425C1.93125 13.5 1.875 13.7625 1.875 14.0062C1.875 14.3438 1.96875 14.4375 2.3625 14.4375C2.775 14.4375 2.83125 14.3625 2.775 13.9312C2.71875 13.425 2.2875 13.1625 2.00625 13.425Z" fill="white"/>
</svg>
